<mxfile modified="2024-03-26T03:07:06.298Z" host="app.diagrams.net" agent="Mozilla/5.0 (Macintosh; Intel Mac OS X 10_15_7) AppleWebKit/537.36 (KHTML, like Gecko) Chrome/123.0.0.0 Safari/537.36" etag="onWyD7lzRsV9LBgP2eQQ" version="24.1.0" type="device">
  <diagram id="Ht1M8jgEwFfnCIfOTk4-" name="Page-1">
    <mxGraphModel dx="2532" dy="866" grid="1" gridSize="10" guides="1" tooltips="1" connect="1" arrows="1" fold="1" page="1" pageScale="1" pageWidth="1169" pageHeight="827" math="0" shadow="0">
      <root>
        <mxCell id="0" />
        <mxCell id="1" parent="0" />
        <mxCell id="-QjtrjUzRDEMRZ5MF8oH-11" value="AWS Lambda Function" style="outlineConnect=0;fontColor=#232F3E;gradientColor=none;fillColor=#277116;strokeColor=none;dashed=0;verticalLabelPosition=bottom;verticalAlign=top;align=center;html=1;fontSize=12;fontStyle=0;aspect=fixed;pointerEvents=1;shape=mxgraph.aws4.lambda_function;" parent="1" vertex="1">
          <mxGeometry x="-850" y="356" width="78" height="78" as="geometry" />
        </mxCell>
        <mxCell id="9S97hIM4vUQwya3J7SNM-2" value="" style="endArrow=classic;html=1;rounded=0;" edge="1" parent="1">
          <mxGeometry width="50" height="50" relative="1" as="geometry">
            <mxPoint x="-980" y="394.28999999999996" as="sourcePoint" />
            <mxPoint x="-880" y="394.28999999999996" as="targetPoint" />
          </mxGeometry>
        </mxCell>
        <mxCell id="9S97hIM4vUQwya3J7SNM-5" value="Amazon CloudWatch" style="sketch=0;outlineConnect=0;fontColor=#232F3E;gradientColor=none;strokeColor=#ffffff;fillColor=#232F3E;dashed=0;verticalLabelPosition=middle;verticalAlign=bottom;align=center;html=1;whiteSpace=wrap;fontSize=10;fontStyle=1;spacing=3;shape=mxgraph.aws4.productIcon;prIcon=mxgraph.aws4.cloudwatch;" vertex="1" parent="1">
          <mxGeometry x="-1080" y="351" width="80" height="110" as="geometry" />
        </mxCell>
        <mxCell id="9S97hIM4vUQwya3J7SNM-7" value="Amazon RDS" style="sketch=0;outlineConnect=0;fontColor=#232F3E;gradientColor=none;strokeColor=#ffffff;fillColor=#232F3E;dashed=0;verticalLabelPosition=middle;verticalAlign=bottom;align=center;html=1;whiteSpace=wrap;fontSize=10;fontStyle=1;spacing=3;shape=mxgraph.aws4.productIcon;prIcon=mxgraph.aws4.rds;" vertex="1" parent="1">
          <mxGeometry x="-640" y="356" width="80" height="100" as="geometry" />
        </mxCell>
        <mxCell id="9S97hIM4vUQwya3J7SNM-8" value="" style="endArrow=classic;html=1;rounded=0;" edge="1" parent="1">
          <mxGeometry width="50" height="50" relative="1" as="geometry">
            <mxPoint x="-750" y="394.28999999999996" as="sourcePoint" />
            <mxPoint x="-650" y="394.28999999999996" as="targetPoint" />
          </mxGeometry>
        </mxCell>
        <mxCell id="9S97hIM4vUQwya3J7SNM-10" value="" style="endArrow=classic;html=1;rounded=0;" edge="1" parent="1">
          <mxGeometry width="50" height="50" relative="1" as="geometry">
            <mxPoint x="-540" y="395.28999999999996" as="sourcePoint" />
            <mxPoint x="-440" y="395.28999999999996" as="targetPoint" />
          </mxGeometry>
        </mxCell>
        <mxCell id="9S97hIM4vUQwya3J7SNM-13" value="" style="sketch=0;points=[[0,0,0],[0.25,0,0],[0.5,0,0],[0.75,0,0],[1,0,0],[0,1,0],[0.25,1,0],[0.5,1,0],[0.75,1,0],[1,1,0],[0,0.25,0],[0,0.5,0],[0,0.75,0],[1,0.25,0],[1,0.5,0],[1,0.75,0]];outlineConnect=0;fontColor=#232F3E;fillColor=#ED7100;strokeColor=#ffffff;dashed=0;verticalLabelPosition=bottom;verticalAlign=top;align=center;html=1;fontSize=12;fontStyle=0;aspect=fixed;shape=mxgraph.aws4.resourceIcon;resIcon=mxgraph.aws4.app_runner;" vertex="1" parent="1">
          <mxGeometry x="-420" y="357" width="78" height="78" as="geometry" />
        </mxCell>
        <mxCell id="9S97hIM4vUQwya3J7SNM-14" value="AWS App Runner" style="text;html=1;align=center;verticalAlign=middle;whiteSpace=wrap;rounded=0;" vertex="1" parent="1">
          <mxGeometry x="-450" y="434" width="150" height="30" as="geometry" />
        </mxCell>
        <mxCell id="9S97hIM4vUQwya3J7SNM-16" value="Amazon ECR" style="sketch=0;outlineConnect=0;fontColor=#232F3E;gradientColor=none;strokeColor=#ffffff;fillColor=#232F3E;dashed=0;verticalLabelPosition=middle;verticalAlign=bottom;align=center;html=1;whiteSpace=wrap;fontSize=10;fontStyle=1;spacing=3;shape=mxgraph.aws4.productIcon;prIcon=mxgraph.aws4.ecr;" vertex="1" parent="1">
          <mxGeometry x="-415" y="157" width="80" height="100" as="geometry" />
        </mxCell>
        <mxCell id="9S97hIM4vUQwya3J7SNM-17" value="" style="endArrow=classic;html=1;rounded=0;" edge="1" parent="1">
          <mxGeometry width="50" height="50" relative="1" as="geometry">
            <mxPoint x="-380" y="259" as="sourcePoint" />
            <mxPoint x="-381.71" y="349" as="targetPoint" />
          </mxGeometry>
        </mxCell>
        <mxCell id="9S97hIM4vUQwya3J7SNM-18" value="Amazon ECR" style="sketch=0;outlineConnect=0;fontColor=#232F3E;gradientColor=none;strokeColor=#ffffff;fillColor=#232F3E;dashed=0;verticalLabelPosition=middle;verticalAlign=bottom;align=center;html=1;whiteSpace=wrap;fontSize=10;fontStyle=1;spacing=3;shape=mxgraph.aws4.productIcon;prIcon=mxgraph.aws4.ecr;" vertex="1" parent="1">
          <mxGeometry x="-850" y="157" width="80" height="100" as="geometry" />
        </mxCell>
        <mxCell id="9S97hIM4vUQwya3J7SNM-19" value="" style="endArrow=classic;html=1;rounded=0;" edge="1" parent="1">
          <mxGeometry width="50" height="50" relative="1" as="geometry">
            <mxPoint x="-810" y="260" as="sourcePoint" />
            <mxPoint x="-810" y="340" as="targetPoint" />
          </mxGeometry>
        </mxCell>
        <mxCell id="9S97hIM4vUQwya3J7SNM-20" value="" style="shape=image;verticalLabelPosition=bottom;labelBackgroundColor=default;verticalAlign=top;aspect=fixed;imageAspect=0;image=https://www.pts.pitt.edu/sites/default/files/pogoh-logo-rgb.png;" vertex="1" parent="1">
          <mxGeometry x="-902.96" y="530" width="185.92" height="77" as="geometry" />
        </mxCell>
        <mxCell id="9S97hIM4vUQwya3J7SNM-21" value="" style="endArrow=classic;html=1;rounded=0;exitX=0.5;exitY=0;exitDx=0;exitDy=0;" edge="1" parent="1" source="9S97hIM4vUQwya3J7SNM-20">
          <mxGeometry width="50" height="50" relative="1" as="geometry">
            <mxPoint x="-840" y="530" as="sourcePoint" />
            <mxPoint x="-810" y="460" as="targetPoint" />
          </mxGeometry>
        </mxCell>
        <mxCell id="9S97hIM4vUQwya3J7SNM-23" value="Bikeshare API" style="text;html=1;align=center;verticalAlign=middle;resizable=0;points=[];autosize=1;strokeColor=none;fillColor=none;" vertex="1" parent="1">
          <mxGeometry x="-860" y="598" width="100" height="30" as="geometry" />
        </mxCell>
      </root>
    </mxGraphModel>
  </diagram>
</mxfile>
